C:\GBW_MyPrograms\KinderuniversiteitApp\Resultaten\Ellis_v10102025\Aarde\Aarde_v4.mot
version=1
nRows=11
nColumns=29
inDegrees=yes
endheader
                time	         pelvis_tilt	           pelvis_tx	           pelvis_ty	       hip_flexion_l	       hip_flexion_r	        knee_angle_l	        knee_angle_r	       ankle_angle_l	       ankle_angle_r	    lumbar_extension	hamstrings_r/activation	bifemsh_r/activation	glut_max_r/activation	iliopsoas_r/activation	rect_fem_r/activation	  vasti_r/activation	gastroc_r/activation	 soleus_r/activation	tib_ant_r/activation	hamstrings_l/activation	bifemsh_l/activation	glut_max_l/activation	iliopsoas_l/activation	rect_fem_l/activation	  vasti_l/activation	gastroc_l/activation	 soleus_l/activation	tib_ant_l/activation	
          0.00000000	         -6.08499410	          0.00000000	          0.90345922	         -9.04559453	         29.41351631	        -18.71428662	        -20.17517243	         -4.81231623	          9.88341963	         -1.82307273	          0.33710885	          0.23367642	          0.27734424	          0.10254342	          0.11688739	          0.16319106	          0.08822114	          0.09502624	          0.36836747	          0.07828700	          0.28712459	          0.08552551	          0.66116867	          0.54692258	          0.11624333	          0.24927702	          0.17823606	          0.05122538	
          0.00902790	         -6.20497597	          0.01507442	          0.90158777	         -9.23109579	         29.02861319	        -19.65668295	        -20.27999105	         -6.08552396	          9.76317472	         -1.31594100	          0.31339401	          0.21689270	          0.30167776	          0.09052951	          0.10685784	          0.22447676	          0.07972624	          0.08538402	          0.40670144	          0.08228028	          0.26777859	          0.11809545	          0.66095547	          0.48020880	          0.10590558	          0.21720421	          0.15540530	          0.07731977	
          0.01805580	         -6.32630373	          0.03034851	          0.89953175	         -9.23858738	         28.46039158	        -20.94408194	        -20.73551045	         -7.26765586	          9.74064337	         -0.77929023	          0.28259633	          0.20865339	          0.31257200	          0.07992265	          0.09522149	          0.28220683	          0.08210053	          0.08651093	          0.36338551	          0.12491724	          0.25005840	          0.17075729	          0.58096323	          0.41940397	          0.09421704	          0.18925059	          0.13541858	          0.29572009	
          0.02708370	         -6.44725493	          0.04558225	          0.89737983	         -9.09548655	         27.75185597	        -22.50920618	        -21.09084847	         -8.01069538	          9.88769411	         -0.24608572	          0.24728566	          0.19731998	          0.31572967	          0.07085932	          0.08635920	          0.32761543	          0.07326473	          0.07642375	          0.41596544	          0.12576954	          0.23131467	          0.22368990	          0.57309225	          0.36978588	          0.08418301	          0.16637778	          0.11985513	          0.26871610	
          0.03611160	         -6.57082944	          0.06046505	          0.89534528	         -8.83901028	         27.14034519	        -24.05434255	        -21.55772829	         -8.02820669	          9.90423643	          0.24668427	          0.21652970	          0.18017015	          0.33283971	          0.06388752	          0.08293316	          0.39410700	          0.06939365	          0.08168265	          0.39276822	          0.14100828	          0.22431323	          0.19840538	          0.55942829	          0.32715140	          0.07525884	          0.14707504	          0.10519884	          0.30130079	
          0.04513951	         -6.69369552	          0.07486725	          0.89368243	         -8.43171654	         26.71082109	        -25.58599934	        -22.32303856	         -7.88515719	         10.17318388	          0.67834282	          0.18995287	          0.16871675	          0.32930026	          0.06133469	          0.08449967	          0.46379778	          0.06784362	          0.08918390	          0.36287607	          0.14327168	          0.23032090	          0.17458058	          0.53355623	          0.31143313	          0.06720832	          0.13455378	          0.09412007	          0.29877548	
          0.05416741	         -6.81251979	          0.08880760	          0.89253206	         -7.85378016	         26.35630299	        -27.17507702	        -23.21372453	         -7.34068356	         10.82243990	          1.04796122	          0.16797497	          0.16313089	          0.31431595	          0.06263602	          0.08419134	          0.52617082	          0.08212957	          0.12775824	          0.32096840	          0.15668272	          0.24970904	          0.15365657	          0.48883611	          0.29039875	          0.06071146	          0.12085307	          0.08293151	          0.29870730	
          0.06319531	         -6.92647564	          0.10234618	          0.89199254	         -7.11195968	         25.93629153	        -28.77878111	        -23.93991328	         -6.72291793	         11.43129360	          1.36294637	          0.15149354	          0.16653060	          0.29241242	          0.06199184	          0.08084030	          0.54433894	          0.09375847	          0.15519070	          0.28610150	          0.17480724	          0.25566566	          0.13608112	          0.43292091	          0.29615310	          0.05643417	          0.10985988	          0.07362576	          0.27980070	
          0.07222321	         -7.03395662	          0.11552828	          0.89208387	         -6.22401554	         25.38772512	        -30.39455020	        -24.38727411	         -6.01295283	         11.91162206	          1.62768283	          0.14157666	          0.17004824	          0.26321711	          0.06078870	          0.07759382	          0.52527735	          0.10848781	          0.18066680	          0.25989068	          0.20082668	          0.26155272	          0.12095435	          0.37991490	          0.31909198	          0.05510148	          0.09960878	          0.06577491	          0.26750963	
          0.08125111	         -7.13336265	          0.12839510	          0.89276211	         -5.22386532	         24.71144559	        -31.96776489	        -24.56472600	         -5.24460311	         12.24927675	          1.84583896	          0.13497336	          0.16861581	          0.23510448	          0.05953025	          0.07590301	          0.48310011	          0.12488221	          0.20237811	          0.24080543	          0.22312876	          0.27305398	          0.10812746	          0.33288618	          0.34154899	          0.05471024	          0.09124455	          0.05965626	          0.25070375	
          0.09027901	         -7.22234045	          0.14098485	          0.89394090	         -4.14337714	         23.92811138	        -33.45578653	        -24.51701960	         -4.49490502	         12.43899697	          2.01960902	          0.13046617	          0.16275239	          0.20981737	          0.05868404	          0.07646172	          0.43153297	          0.14240747	          0.21970226	          0.22393870	          0.24150387	          0.29317427	          0.09690798	          0.29180917	          0.35710187	          0.05456224	          0.08429174	          0.05609170	          0.24088934	
